<?xml version="1.0" encoding="UTF-8" standalone="no"?>
<!-- Created with Inkscape (http://www.inkscape.org/) -->

<svg
   xmlns:dc="http://purl.org/dc/elements/1.1/"
   xmlns:cc="http://creativecommons.org/ns#"
   xmlns:rdf="http://www.w3.org/1999/02/22-rdf-syntax-ns#"
   xmlns:svg="http://www.w3.org/2000/svg"
   xmlns="http://www.w3.org/2000/svg"
   xmlns:xlink="http://www.w3.org/1999/xlink"
   xmlns:sodipodi="http://sodipodi.sourceforge.net/DTD/sodipodi-0.dtd"
   xmlns:inkscape="http://www.inkscape.org/namespaces/inkscape"
   width="720"
   height="330"
   viewBox="0 0 720 330"
   id="svg2"
   version="1.1"
   inkscape:version="0.91 r13725"
   sodipodi:docname="qgoda.svg">
  <defs
     id="defs4" />
  <sodipodi:namedview
     id="base"
     pagecolor="#ffff00"
     bordercolor="#666666"
     borderopacity="1.0"
     inkscape:pageopacity="0"
     inkscape:pageshadow="2"
     inkscape:zoom="0.506"
     inkscape:cx="87.550138"
     inkscape:cy="327.12259"
     inkscape:document-units="px"
     inkscape:current-layer="layer1"
     showgrid="true"
     units="px"
     objecttolerance="10000"
     guidetolerance="10000"
     inkscape:window-width="1280"
     inkscape:window-height="710"
     inkscape:window-x="0"
     inkscape:window-y="1"
     inkscape:window-maximized="1"
     showguides="false"
     fit-margin-top="0"
     fit-margin-left="0"
     fit-margin-right="0"
     fit-margin-bottom="0">
    <inkscape:grid
       type="xygrid"
       id="grid3336"
       originx="-5.3352398"
       originy="-647.18572" />
  </sodipodi:namedview>
  <metadata
     id="metadata7">
    <rdf:RDF>
      <cc:Work
         rdf:about="">
        <dc:format>image/svg+xml</dc:format>
        <dc:type
           rdf:resource="http://purl.org/dc/dcmitype/StillImage" />
        <dc:title></dc:title>
      </cc:Work>
    </rdf:RDF>
  </metadata>
  <g
     inkscape:label="Layer 1"
     inkscape:groupmode="layer"
     id="layer1"
     transform="translate(-5.3352399,-75.176455)">
    <path
       style="fill:none;fill-rule:evenodd;stroke:#ffffff;stroke-width:20;stroke-linecap:butt;stroke-linejoin:miter;stroke-miterlimit:4;stroke-dasharray:none;stroke-opacity:1"
       d="m 44.568835,218.51086 c -0.0691,-14.23984 14.142208,-25.11239 24.162436,-35.23033 8.209455,-8.28952 19.113545,-13.38345 28.670321,-20.07518 9.556778,-6.69173 18.072928,-15.19599 28.670318,-20.07518 12.93488,-5.95539 28.0123,-15.59102 41.36973,-10.65577 18.76044,6.93151 27.01399,30.56872 34.41459,49.14912 8.27413,20.77351 10.14541,43.99782 9.84003,66.35642 -0.28972,21.21123 6.00006,50.05278 -11.05091,62.67278 -18.02316,13.33955 -45.65607,-0.63045 -66.76854,-8.18302 C 113.4762,295.17178 94.650303,282.62639 78.983422,267.65999 64.521686,253.84485 44.665882,238.51063 44.568835,218.51086 Z"
       id="path3338"
       inkscape:connector-curvature="0"
       sodipodi:nodetypes="aaaaaaaaaaa" />
    <path
       style="fill:#ffffff;fill-opacity:1;fill-rule:evenodd;stroke:#ffffff;stroke-width:1;stroke-linecap:butt;stroke-linejoin:miter;stroke-miterlimit:4;stroke-dasharray:none;stroke-opacity:1"
       d="m 42.91183,85.385906 c 0,0 29.184315,15.527814 35.230338,24.162434 6.04603,8.63462 10.655778,41.36973 10.655778,41.36973 0,0 -27.062605,-12.4977 -35.230339,-24.16244 C 45.399878,115.09091 42.91183,85.385906 42.91183,85.385906 Z"
       id="path4145"
       inkscape:connector-curvature="0"
       sodipodi:nodetypes="cscac"
       inkscape:tile-cx="120"
       inkscape:tile-cy="45"
       inkscape:tile-w="31"
       inkscape:tile-h="82.088314"
       inkscape:tile-x0="104.5"
       inkscape:tile-y0="3.9558425" />
    <use
       x="0"
       y="0"
       xlink:href="#path4145"
       id="use4282"
       transform="matrix(0.50000001,-0.8660254,0.8660254,0.50000001,-89.02429,154.27488)"
       width="100%"
       height="100%"
       style="stroke:#ffffff;stroke-width:1;stroke-linecap:butt;stroke-miterlimit:4;stroke-dasharray:none;stroke-opacity:1;fill:#ffffff;fill-opacity:1" />
    <use
       x="0"
       y="0"
       xlink:href="#use4282"
       id="use4284"
       transform="matrix(-0.34202013,0.93969263,0.93969263,0.34202013,-22.576118,15.807969)"
       width="100%"
       height="100%"
       style="stroke:#ffffff;stroke-width:1;stroke-linecap:butt;stroke-miterlimit:4;stroke-dasharray:none;stroke-opacity:1;fill:#ffffff;fill-opacity:1" />
    <ellipse
       style="fill:#ffffff;fill-opacity:1;stroke:#ffffff;stroke-width:1.05500817;stroke-miterlimit:4;stroke-dasharray:none;stroke-opacity:1"
       id="path4288"
       cx="-59.324032"
       cy="227.05727"
       rx="6.972496"
       ry="11.972496"
       transform="matrix(0.81915204,-0.57357644,0.57357644,0.81915204,0,0)" />
    <use
       style="stroke:#ffffff;stroke-opacity:1;fill:#ffffff;fill-opacity:1"
       x="0"
       y="0"
       xlink:href="#path4288"
       id="use4370"
       width="100%"
       height="100%"
       transform="translate(24.574562,-17.207293)" />
    <use
       style="stroke:#ffffff;stroke-opacity:1;fill:#ffffff;fill-opacity:1"
       x="0"
       y="0"
       xlink:href="#path4288"
       id="use4374"
       transform="translate(49.149123,-34.414587)"
       width="100%"
       height="100%" />
    <use
       style="stroke:#ffffff;stroke-opacity:1;fill:#ffffff;fill-opacity:1"
       x="0"
       y="0"
       xlink:href="#path4288"
       id="use4376"
       transform="translate(73.723685,-51.62188)"
       width="100%"
       height="100%" />
    <use
       style="stroke:#ffffff;stroke-opacity:1;fill:#ffffff;fill-opacity:1"
       x="0"
       y="0"
       xlink:href="#path4288"
       id="use4378"
       transform="translate(19.501599,27.85117)"
       width="100%"
       height="100%" />
    <use
       style="stroke:#ffffff;stroke-opacity:1;fill:#ffffff;fill-opacity:1"
       x="0"
       y="0"
       xlink:href="#use4370"
       id="use4380"
       transform="translate(19.501599,27.85117)"
       width="100%"
       height="100%" />
    <use
       style="stroke:#ffffff;stroke-opacity:1;fill:#ffffff;fill-opacity:1"
       x="0"
       y="0"
       xlink:href="#use4374"
       id="use4382"
       transform="translate(19.501599,27.85117)"
       width="100%"
       height="100%" />
    <use
       style="stroke:#ffffff;stroke-opacity:1;fill:#ffffff;fill-opacity:1"
       x="0"
       y="0"
       xlink:href="#use4376"
       id="use4384"
       transform="translate(19.501599,27.85117)"
       width="100%"
       height="100%" />
    <use
       style="stroke:#ffffff;stroke-opacity:1;fill:#ffffff;fill-opacity:1"
       x="0"
       y="0"
       xlink:href="#use4378"
       id="use4386"
       transform="translate(31.78888,19.247523)"
       width="100%"
       height="100%" />
    <use
       style="stroke:#ffffff;stroke-opacity:1;fill:#ffffff;fill-opacity:1"
       x="0"
       y="0"
       xlink:href="#use4380"
       id="use4388"
       transform="translate(31.78888,19.247523)"
       width="100%"
       height="100%" />
    <use
       style="stroke:#ffffff;stroke-opacity:1;fill:#ffffff;fill-opacity:1"
       x="0"
       y="0"
       xlink:href="#use4382"
       id="use4390"
       transform="translate(31.78888,19.247523)"
       width="100%"
       height="100%" />
    <use
       style="stroke:#ffffff;stroke-opacity:1;fill:#ffffff;fill-opacity:1"
       x="0"
       y="0"
       xlink:href="#use4386"
       id="use4394"
       transform="translate(31.78888,19.247523)"
       width="100%"
       height="100%" />
    <use
       style="stroke:#ffffff;stroke-opacity:1;fill:#ffffff;fill-opacity:1"
       x="0"
       y="0"
       xlink:href="#use4388"
       id="use4396"
       transform="translate(31.78888,19.247523)"
       width="100%"
       height="100%" />
    <g
       style="font-style:normal;font-variant:normal;font-weight:bold;font-stretch:normal;font-size:180px;line-height:125%;font-family:'.Beirut PUA';-inkscape-font-specification:'.Beirut PUA, Bold';text-align:start;letter-spacing:0px;word-spacing:0px;writing-mode:lr-tb;text-anchor:start;fill:#ffffff;fill-opacity:1;stroke:#ffffff;stroke-width:1px;stroke-linecap:butt;stroke-linejoin:miter;stroke-opacity:1"
       id="text4419">
      <path
         d="m 316.33867,271.58295 q -6.50391,8.61328 -14.32617,12.65625 -7.82227,4.04297 -18.10547,4.04297 -18.01758,0 -29.79492,-14.1504 -11.77735,-14.23828 -11.77735,-36.21093 0,-22.06055 11.77735,-36.12305 11.77734,-14.15039 29.79492,-14.15039 10.2832,0 18.10547,4.04297 7.82226,4.04297 14.32617,12.74414 l 0,-14.58984 31.64062,0 0,88.50585 q 0,23.73047 -15.02929,36.21094 -14.94141,12.56836 -43.41797,12.56836 -9.22852,0 -17.8418,-1.40625 -8.61328,-1.40625 -17.31445,-4.30664 l 0,-24.52148 q 8.26172,4.74609 16.17187,7.03125 7.91016,2.37304 15.90821,2.37304 15.46875,0 22.67578,-6.76757 7.20703,-6.76758 7.20703,-21.18165 l 0,-6.76757 z m -20.74219,-61.25977 q -9.75586,0 -15.20508,7.20703 -5.44922,7.20703 -5.44922,20.39063 0,13.53515 5.27344,20.5664 5.27344,6.94336 15.38086,6.94336 9.84375,0 15.29297,-7.20703 5.44922,-7.20703 5.44922,-20.30273 0,-13.1836 -5.44922,-20.39063 -5.44922,-7.20703 -15.29297,-7.20703 z"
         id="path4156"
         inkscape:connector-curvature="0"
         style="stroke:#ffffff;stroke-opacity:1;fill:#ffffff;fill-opacity:1" />
      <path
         d="m 425.23515,209.97162 q -10.45898,0 -15.99609,7.55859 -5.44922,7.47071 -5.44922,21.6211 0,14.15039 5.44922,21.70898 5.53711,7.4707 15.99609,7.4707 10.28321,0 15.73243,-7.4707 5.44921,-7.55859 5.44921,-21.70898 0,-14.15039 -5.44921,-21.6211 -5.44922,-7.55859 -15.73243,-7.55859 z m 0,-22.5 q 25.40039,0 39.63868,13.71094 14.32617,13.71093 14.32617,37.96875 0,24.25781 -14.32617,37.96875 -14.23829,13.71093 -39.63868,13.71093 -25.48828,0 -39.90234,-13.71093 -14.32617,-13.71094 -14.32617,-37.96875 0,-24.25782 14.32617,-37.96875 14.41406,-13.71094 39.90234,-13.71094 z"
         id="path4158"
         inkscape:connector-curvature="0"
         style="stroke:#ffffff;stroke-opacity:1;fill:#ffffff;fill-opacity:1" />
      <path
         d="m 569.11211,204.25873 0,-52.73438 31.64062,0 0,136.75782 -31.64062,0 0,-14.23829 q -6.50391,8.70118 -14.32618,12.74414 -7.82226,4.04297 -18.10546,4.04297 -18.19336,0 -29.88282,-14.41406 -11.68945,-14.50195 -11.68945,-37.26562 0,-22.76368 11.68945,-37.17774 11.68946,-14.50195 29.88282,-14.50195 10.19531,0 18.01757,4.13086 7.91016,4.04297 14.41407,12.65625 z m -20.74219,63.7207 q 10.10742,0 15.38086,-7.38281 5.36133,-7.38281 5.36133,-21.44531 0,-14.0625 -5.36133,-21.44532 -5.27344,-7.38281 -15.38086,-7.38281 -10.01953,0 -15.38086,7.38281 -5.27344,7.38282 -5.27344,21.44532 0,14.0625 5.27344,21.44531 5.36133,7.38281 15.38086,7.38281 z"
         id="path4160"
         inkscape:connector-curvature="0"
         style="stroke:#ffffff;stroke-opacity:1;fill:#ffffff;fill-opacity:1" />
      <path
         d="m 675.28398,243.98529 q -9.84375,0 -14.85351,3.33984 -4.92188,3.33985 -4.92188,9.84375 0,5.97657 3.95508,9.4043 4.04297,3.33984 11.16211,3.33984 8.87695,0 14.9414,-6.32812 6.06446,-6.41602 6.06446,-15.99609 l 0,-3.60352 -16.34766,0 z m 48.07617,-11.86523 0,56.16211 -31.72851,0 0,-14.58985 q -6.32813,8.96485 -14.23828,13.0957 -7.91016,4.04297 -19.24805,4.04297 -15.29297,0 -24.87305,-8.87695 -9.49218,-8.96484 -9.49218,-23.20312 0,-17.31446 11.86523,-25.4004 11.95312,-8.08593 37.44141,-8.08593 l 18.54492,0 0,-2.46094 q 0,-7.4707 -5.88867,-10.89844 -5.88868,-3.51562 -18.36914,-3.51562 -10.10743,0 -18.8086,2.02148 -8.70117,2.02149 -16.17187,6.06445 l 0,-23.99414 q 10.10742,-2.46093 20.30273,-3.6914 10.19531,-1.31836 20.39063,-1.31836 26.63086,0 38.4082,10.54687 11.86523,10.45899 11.86523,34.10157 z"
         id="path4162"
         inkscape:connector-curvature="0"
         style="stroke:#ffffff;stroke-opacity:1;fill:#ffffff;fill-opacity:1" />
    </g>
    <path
       style="fill:none;fill-rule:evenodd;stroke:#ffffff;stroke-width:25;stroke-linecap:round;stroke-linejoin:miter;stroke-miterlimit:4;stroke-dasharray:none;stroke-opacity:1"
       d="m 100,352.36216 c 0,0 118.68711,44.30206 180,40 56.82033,-3.98684 103.16966,-56.15856 160,-60 45.13574,-3.05094 40,0 132.33202,30.11858"
       id="path4425"
       inkscape:connector-curvature="0"
       sodipodi:nodetypes="caac" />
  </g>
</svg>
